<svg width="44" height="44" viewBox="0 0 44 44" fill="none" xmlns="http://www.w3.org/2000/svg">
<rect width="44" height="44" rx="22" fill="#2BAAE2"/>
<path d="M20.3303 26.593H14.0295" stroke="white" strokeWidth="1.5" strokeLinecap="round" strokeLinejoin="round"/>
<path d="M23.1404 16.9002H29.4411" stroke="white" strokeWidth="1.5" strokeLinecap="round" strokeLinejoin="round"/>
<path fillRule="evenodd" clipRule="evenodd" d="M18.7263 16.8463C18.7263 15.5506 17.6681 14.5 16.3631 14.5C15.0582 14.5 14 15.5506 14 16.8463C14 18.1419 15.0582 19.1925 16.3631 19.1925C17.6681 19.1925 18.7263 18.1419 18.7263 16.8463Z" stroke="white" strokeWidth="1.5" strokeLinecap="round" strokeLinejoin="round"/>
<path fillRule="evenodd" clipRule="evenodd" d="M30 26.5538C30 25.2581 28.9426 24.2075 27.6376 24.2075C26.3318 24.2075 25.2737 25.2581 25.2737 26.5538C25.2737 27.8494 26.3318 28.9 27.6376 28.9C28.9426 28.9 30 27.8494 30 26.5538Z" stroke="white" strokeWidth="1.5" strokeLinecap="round" strokeLinejoin="round"/>
</svg>
